<svg width="2633" height="345" viewBox="0 0 2633 345" fill="none" xmlns="http://www.w3.org/2000/svg">
<path d="M2479.81 205.65V267.75H2632.81V338.4H2401.51V5.85004H2627.86V76.5H2479.81V134.55H2619.76V205.65H2479.81Z" fill="white"/>
<path d="M2142.22 338.4H2067.52V5.85004H2135.47L2270.02 197.55H2272.72V5.85004H2347.42V338.4H2283.97L2144.92 147.15H2142.22V338.4Z" fill="white"/>
<path d="M1864.89 344.7C1832.79 344.7 1804.89 337.8 1781.19 324C1757.49 310.2 1739.19 290.4 1726.29 264.6C1713.69 238.8 1707.39 208.05 1707.39 172.35C1707.39 136.65 1713.69 105.9 1726.29 80.1C1739.19 54 1757.49 34.2 1781.19 20.7C1804.89 6.9 1832.79 0 1864.89 0C1897.29 0 1925.19 6.9 1948.59 20.7C1972.29 34.2 1990.44 54 2003.04 80.1C2015.94 105.9 2022.39 136.65 2022.39 172.35C2022.39 208.05 2015.94 238.8 2003.04 264.6C1990.44 290.4 1972.29 310.2 1948.59 324C1924.89 337.8 1896.99 344.7 1864.89 344.7ZM1864.89 271.35C1888.89 271.35 1907.79 262.65 1921.59 245.25C1935.69 227.85 1942.74 203.55 1942.74 172.35C1942.74 140.85 1935.69 116.55 1921.59 99.45C1907.79 82.05 1888.89 73.35 1864.89 73.35C1840.89 73.35 1821.99 82.05 1808.19 99.45C1794.39 116.55 1787.49 140.85 1787.49 172.35C1787.49 203.55 1794.39 227.85 1808.19 245.25C1821.99 262.65 1840.89 271.35 1864.89 271.35Z" fill="white"/>
<path d="M1690.1 65.3L1536.65 264.65H1697.3V337.55H1430V277.7L1583.9 78.35H1434.95V5H1690.1V65.3Z" fill="white"/>
<path d="M1373.35 164.75L1493.95 337.55H1396.75L1327 228.65L1260.4 337.55H1163.65L1282.45 162.95L1169.95 5H1265.35L1329.7 100.85L1391.35 5H1487.2L1373.35 164.75Z" fill="#2200FF"/>
<path fill-rule="evenodd" clip-rule="evenodd" d="M1492 5H1435V78.35H1492V5Z" fill="white"/>
<path d="M1152.86 337.55H1070.06L1045.76 269.15H929.208L904.908 337.55H821.658L947.208 5H1027.31L1152.86 337.55ZM986.358 107.15L954.858 195.8H1020.11L988.608 107.15H986.358Z" fill="#2200FF"/>
<path d="M654.423 5V266.9H806.973V337.55H576.123V5H654.423Z" fill="#2200FF"/>
<path d="M381.083 204.8V266.9H534.083V337.55H302.783V5H529.133V75.65H381.083V133.7H521.033V204.8H381.083Z" fill="#2200FF"/>
<path d="M181.35 337.55L123.3 225.95H78.3V337.55H0V5H134.1C171.9 5 201.6 14.9 223.2 34.7C245.1 54.2 256.05 81.05 256.05 115.25C256.05 138.35 251.25 158.3 241.65 175.1C232.05 191.6 218.4 204.2 200.7 212.9L273.15 337.55H181.35ZM78.3 75.65V154.85H122.85C139.65 154.85 152.7 151.55 162 144.95C171.3 138.35 175.95 128.45 175.95 115.25C175.95 102.05 171.3 92.15 162 85.55C152.7 78.95 139.65 75.65 122.85 75.65H78.3Z" fill="#2200FF"/>
</svg>
